<?xml version="1.0" standalone="no"?>
<!DOCTYPE svg PUBLIC "-//W3C//DTD SVG 20010904//EN"
 "http://www.w3.org/TR/2001/REC-SVG-20010904/DTD/svg10.dtd">
<svg version="1.0" xmlns="http://www.w3.org/2000/svg"
 width="300.000000pt" height="300.000000pt" viewBox="0 0 300.000000 300.000000"
 preserveAspectRatio="xMidYMid meet">
<metadata>
Created by potrace 1.11, written by Peter Selinger 2001-2013
</metadata>
<g transform="translate(0.000000,300.000000) scale(0.100000,-0.100000)"
fill="#000000" stroke="none">
<path d="M2208 2142 c-19 -21 -59 -75 -88 -120 -54 -81 -55 -82 -110 -92 -83
-17 -88 -19 -96 -42 -8 -25 17 -48 53 -48 30 0 29 -9 -6 -78 -114 -226 -137
-392 -60 -446 70 -49 177 18 282 177 44 66 51 91 33 106 -21 18 -38 6 -78 -57
-106 -164 -199 -201 -184 -73 8 66 71 228 128 328 l41 72 76 26 c79 26 110 33
148 34 30 1 47 34 33 61 -13 24 -52 26 -127 7 -57 -15 -57 -17 -7 53 47 66 57
96 38 115 -23 23 -39 19 -76 -23z"/>
<path d="M1369 2122 c-61 -62 -64 -123 -5 -130 21 -3 35 5 62 35 90 98 36 188
-57 95z"/>
<path d="M1670 1863 c-8 -3 -33 -18 -55 -33 -226 -155 -339 -540 -157 -540 83
0 186 103 267 265 95 191 94 316 -4 314 -20 0 -43 -3 -51 -6z m38 -120 c4 -30
-20 -79 -63 -127 -35 -39 -44 -69 -26 -81 24 -14 -89 -145 -124 -145 -8 0 -21
10 -30 23 -13 21 -13 29 -2 68 27 88 62 145 133 217 74 77 106 89 112 45z"/>
<path d="M1226 1819 c-24 -19 -121 -207 -235 -455 -31 -67 -36 -73 -86 -93
-177 -73 -352 -252 -371 -379 -13 -84 38 -138 121 -129 101 10 180 99 295 333
l79 160 68 46 c93 62 159 122 210 192 45 61 56 109 27 120 -22 8 -27 4 -67
-57 -37 -56 -165 -182 -175 -173 -7 8 107 240 154 313 58 91 64 104 53 125
-13 24 -40 23 -73 -3z m-383 -751 c-62 -121 -129 -202 -177 -214 -75 -18 -56
85 34 183 70 75 185 161 198 148 2 -2 -22 -55 -55 -117z"/>
</g>
</svg>
